# xmcd CD database file generated by Grip 2.94
# 
# Track frame offsets:
#       150
#       18987
#       39550
#       51722
#       65812
#       85307
#       95505
#       107430
#       123770
#       136230
#       150630
#       177700
#       193135
#       215110
#       231695
#       247730
# 
# Disc length: 3524 seconds
# 
# Revision: 3
# Processed by: cddbd v1.4b41PL1 Copyright (c) Steve Scherf et al.
# Submitted via: Grip 2.94
# 
DISCID=ec0dc210
DTITLE=Kid Ramos - West Coast House Party
DYEAR=1900
DGENRE=
TTITLE0=Strollin' with Bone (Part 1)
TTITLE1='Lizabeth
TTITLE2=Guitar Player
TTITLE3=Talking That Talk
TTITLE4=House Party
TTITLE5=Where Were You
TTITLE6=Love Don't Love Nobody
TTITLE7=Welcome Blues
TTITLE8=Bring It Home To Me
TTITLE9=Wipe Your Tears
TTITLE10=Happy Hour
TTITLE11=Real Gone Lover
TTITLE12=Silly Dilly Woman
TTITLE13=One Bar Short
TTITLE14=One Mo' Peep
TTITLE15=Strollin' With Bone (Part 2)
EXTD=
EXTT0=
EXTT1=
EXTT2=
EXTT3=
EXTT4=
EXTT5=
EXTT6=
EXTT7=
EXTT8=
EXTT9=
EXTT10=
EXTT11=
EXTT12=
EXTT13=
EXTT14=
EXTT15=
PLAYORDER=
